<svg xmlns="http://www.w3.org/2000/svg" xmlns:xlink="http://www.w3.org/1999/xlink" width="500" zoomAndPan="magnify" viewBox="0 0 375 374.999991" height="500" preserveAspectRatio="xMidYMid meet" version="1.0"><defs><clipPath id="0351e85577"><path d="M 169 201 L 210 201 L 210 213.382812 L 169 213.382812 Z M 169 201 " clip-rule="nonzero"/></clipPath><clipPath id="8e89159a1c"><path d="M 161.535156 171 L 167 171 L 167 199 L 161.535156 199 Z M 161.535156 171 " clip-rule="nonzero"/></clipPath><clipPath id="1ee22430c8"><path d="M 195 186 L 213.285156 186 L 213.285156 211 L 195 211 Z M 195 186 " clip-rule="nonzero"/></clipPath><clipPath id="7eb961e26f"><path d="M 163 161.632812 L 188 161.632812 L 188 208 L 163 208 Z M 163 161.632812 " clip-rule="nonzero"/></clipPath></defs><g clip-path="url(#0351e85577)"><path fill="#545454" d="M 208.019531 202.601562 C 208.023438 202.597656 208.027344 202.589844 208.035156 202.582031 C 208.027344 202.589844 208.023438 202.597656 208.019531 202.601562 Z M 208.234375 203.585938 C 207.898438 203.332031 207.832031 202.847656 208.089844 202.511719 C 208.078125 202.527344 208.0625 202.542969 208.054688 202.558594 C 208.0625 202.546875 208.074219 202.53125 208.089844 202.511719 C 208.132812 202.453125 208.15625 202.425781 208.160156 202.417969 C 208.152344 202.429688 208.121094 202.46875 208.089844 202.511719 C 208.347656 202.175781 208.828125 202.109375 209.164062 202.367188 C 209.5 202.621094 209.566406 203.105469 209.308594 203.441406 C 209.054688 203.777344 208.570312 203.84375 208.234375 203.585938 Z M 169.785156 205.433594 C 169.453125 205.789062 169.46875 206.351562 169.824219 206.6875 C 170.082031 206.929688 170.449219 206.984375 170.757812 206.863281 C 175.589844 211.058594 181.730469 213.359375 188.144531 213.359375 C 192.285156 213.359375 196.253906 212.429688 199.945312 210.59375 C 203.167969 208.988281 206.082031 206.699219 208.421875 203.9375 C 208.808594 204.050781 209.238281 203.921875 209.496094 203.585938 C 209.832031 203.144531 209.746094 202.515625 209.308594 202.179688 C 208.867188 201.84375 208.238281 201.929688 207.902344 202.367188 C 207.65625 202.6875 207.636719 203.109375 207.8125 203.445312 C 202.890625 209.257812 195.777344 212.574219 188.144531 212.574219 C 181.925781 212.574219 175.972656 210.34375 171.285156 206.28125 C 171.371094 205.972656 171.285156 205.628906 171.039062 205.394531 C 170.679688 205.0625 170.121094 205.078125 169.785156 205.433594 " fill-opacity="1" fill-rule="nonzero"/></g><g clip-path="url(#8e89159a1c)"><path fill="#545454" d="M 164.890625 197.007812 C 164.886719 197.003906 164.886719 196.996094 164.878906 196.988281 C 164.886719 197 164.886719 197.003906 164.890625 197.007812 Z M 164.8125 196.832031 C 164.789062 196.785156 164.78125 196.761719 164.8125 196.832031 Z M 163.828125 196.511719 C 164.210938 196.339844 164.667969 196.511719 164.839844 196.898438 C 165.015625 197.285156 164.839844 197.742188 164.457031 197.914062 C 164.070312 198.085938 163.613281 197.914062 163.441406 197.527344 C 163.265625 197.140625 163.441406 196.6875 163.828125 196.511719 Z M 166.746094 173.320312 C 167.015625 172.910156 166.898438 172.363281 166.492188 172.09375 C 166.082031 171.824219 165.53125 171.941406 165.265625 172.347656 C 165.070312 172.648438 165.078125 173.023438 165.257812 173.304688 C 162.84375 177.382812 161.574219 182.027344 161.574219 186.789062 C 161.574219 190.152344 162.195312 193.421875 163.417969 196.515625 C 163.144531 196.804688 163.054688 197.242188 163.226562 197.625 C 163.453125 198.128906 164.046875 198.355469 164.550781 198.128906 C 165.054688 197.902344 165.28125 197.308594 165.054688 196.804688 C 164.890625 196.433594 164.523438 196.210938 164.144531 196.210938 C 162.960938 193.210938 162.359375 190.046875 162.359375 186.789062 C 162.359375 182.171875 163.589844 177.671875 165.925781 173.714844 C 166.242188 173.746094 166.5625 173.601562 166.746094 173.320312 " fill-opacity="1" fill-rule="nonzero"/></g><path fill="#545454" d="M 199.105469 165.980469 C 199.113281 165.984375 199.117188 165.984375 199.105469 165.980469 Z M 199.101562 165.976562 C 199.097656 165.972656 199.089844 165.96875 199.078125 165.964844 C 199.085938 165.96875 199.097656 165.972656 199.101562 165.976562 Z M 199.691406 164.554688 C 200.070312 164.742188 200.222656 165.207031 200.035156 165.585938 C 199.84375 165.964844 199.382812 166.117188 199.003906 165.929688 C 198.625 165.738281 198.472656 165.277344 198.660156 164.898438 C 198.847656 164.519531 199.3125 164.367188 199.691406 164.554688 Z M 207.972656 171.292969 C 207.757812 171.007812 207.402344 170.894531 207.074219 170.964844 C 205.1875 168.714844 202.886719 166.792969 200.34375 165.339844 C 200.382812 164.9375 200.175781 164.535156 199.796875 164.34375 C 199.300781 164.097656 198.695312 164.296875 198.449219 164.792969 C 198.203125 165.289062 198.40625 165.890625 198.898438 166.140625 C 199.257812 166.316406 199.671875 166.261719 199.96875 166.027344 C 202.421875 167.433594 204.640625 169.289062 206.464844 171.460938 C 206.332031 171.746094 206.359375 172.09375 206.5625 172.363281 C 206.859375 172.753906 207.414062 172.832031 207.804688 172.535156 C 208.195312 172.238281 208.269531 171.683594 207.972656 171.292969 " fill-opacity="1" fill-rule="nonzero"/><g clip-path="url(#1ee22430c8)"><path fill="#545454" d="M 211.644531 187.867188 C 211.644531 187.878906 211.644531 187.886719 211.644531 187.890625 C 211.644531 187.886719 211.644531 187.878906 211.644531 187.867188 Z M 211.648438 187.65625 Z M 212.429688 187.027344 C 212.855469 187.035156 213.191406 187.386719 213.183594 187.808594 C 213.175781 188.230469 212.824219 188.570312 212.398438 188.5625 C 211.976562 188.550781 211.640625 188.199219 211.648438 187.777344 C 211.648438 187.808594 211.648438 187.84375 211.644531 187.863281 C 211.644531 187.84375 211.648438 187.816406 211.648438 187.777344 C 211.648438 187.714844 211.648438 187.679688 211.648438 187.664062 C 211.648438 187.683594 211.648438 187.730469 211.648438 187.777344 C 211.65625 187.355469 212.007812 187.015625 212.429688 187.027344 Z M 213.417969 187.8125 C 213.429688 187.261719 212.988281 186.800781 212.4375 186.789062 C 211.882812 186.777344 211.421875 187.21875 211.414062 187.773438 C 211.40625 188.171875 211.632812 188.523438 211.96875 188.691406 C 211.257812 197.757812 205.511719 205.574219 197.042969 208.972656 C 196.8125 208.757812 196.472656 208.675781 196.152344 208.785156 C 195.691406 208.945312 195.445312 209.449219 195.605469 209.910156 C 195.765625 210.375 196.269531 210.617188 196.730469 210.457031 C 197.070312 210.339844 197.289062 210.039062 197.324219 209.707031 C 201.558594 208.003906 205.230469 205.171875 207.976562 201.472656 C 210.75 197.738281 212.390625 193.351562 212.753906 188.738281 C 213.132812 188.601562 213.410156 188.242188 213.417969 187.8125 C 213.417969 187.8125 213.417969 187.816406 213.417969 187.816406 C 213.417969 187.816406 213.417969 187.8125 213.417969 187.8125 C 213.417969 187.796875 213.417969 187.785156 213.417969 187.769531 C 213.417969 187.785156 213.417969 187.800781 213.417969 187.8125 " fill-opacity="1" fill-rule="nonzero"/></g><g clip-path="url(#7eb961e26f)"><path fill="#545454" d="M 173.734375 205.375 C 173.734375 205.371094 173.734375 205.371094 173.734375 205.375 Z M 172.757812 205.605469 C 173.007812 205.265625 173.492188 205.195312 173.832031 205.445312 C 173.792969 205.417969 173.753906 205.390625 173.738281 205.378906 C 173.75 205.386719 173.777344 205.40625 173.832031 205.445312 C 173.890625 205.492188 173.921875 205.511719 173.925781 205.515625 C 173.917969 205.507812 173.875 205.476562 173.832031 205.445312 C 174.171875 205.699219 174.242188 206.179688 173.992188 206.519531 C 173.738281 206.859375 173.257812 206.933594 172.917969 206.679688 C 172.578125 206.429688 172.503906 205.945312 172.757812 205.605469 Z M 185.941406 162.203125 C 179.964844 162.734375 174.421875 165.410156 170.253906 169.796875 C 165.871094 174.410156 163.457031 180.445312 163.457031 186.789062 C 163.457031 190.695312 164.347656 194.433594 166.101562 197.902344 C 167.628906 200.917969 169.796875 203.628906 172.410156 205.796875 C 172.300781 206.183594 172.4375 206.617188 172.777344 206.871094 C 173.222656 207.199219 173.851562 207.105469 174.179688 206.660156 C 174.511719 206.214844 174.417969 205.585938 173.972656 205.257812 C 173.648438 205.015625 173.230469 205.003906 172.898438 205.183594 C 167.386719 200.617188 164.242188 193.964844 164.242188 186.789062 C 164.242188 174.378906 173.730469 164.082031 185.992188 162.988281 C 186.152344 163.261719 186.457031 163.441406 186.800781 163.425781 C 187.289062 163.40625 187.664062 162.992188 187.644531 162.503906 C 187.621094 162.015625 187.207031 161.636719 186.71875 161.65625 C 186.363281 161.671875 186.070312 161.894531 185.941406 162.203125 " fill-opacity="1" fill-rule="nonzero"/></g><path fill="#545454" d="M 208.582031 193.90625 C 208.582031 193.914062 208.578125 193.921875 208.574219 193.925781 C 208.578125 193.921875 208.582031 193.914062 208.582031 193.90625 Z M 208.574219 193.929688 C 208.570312 193.941406 208.570312 193.949219 208.566406 193.953125 C 208.570312 193.949219 208.570312 193.941406 208.574219 193.929688 Z M 208.5625 193.972656 C 208.558594 193.972656 208.558594 193.972656 208.5625 193.972656 Z M 208.621094 193.789062 C 208.621094 193.785156 208.621094 193.785156 208.621094 193.785156 C 208.621094 193.785156 208.621094 193.785156 208.621094 193.789062 Z M 208.628906 193.761719 C 208.632812 193.75 208.632812 193.746094 208.632812 193.742188 C 208.632812 193.746094 208.632812 193.75 208.628906 193.761719 Z M 209.5625 193.363281 C 209.96875 193.492188 210.1875 193.925781 210.058594 194.328125 C 209.929688 194.730469 209.496094 194.953125 209.09375 194.824219 C 208.691406 194.695312 208.46875 194.261719 208.597656 193.859375 C 208.605469 193.839844 208.609375 193.824219 208.613281 193.808594 C 208.609375 193.824219 208.601562 193.839844 208.597656 193.859375 C 208.726562 193.453125 209.160156 193.234375 209.5625 193.363281 Z M 210.304688 194.339844 C 210.296875 194.359375 210.289062 194.378906 210.28125 194.402344 C 210.453125 193.875 210.164062 193.308594 209.636719 193.136719 C 209.109375 192.96875 208.542969 193.257812 208.375 193.785156 C 208.25 194.164062 208.367188 194.566406 208.640625 194.824219 C 205.34375 203.226562 197.226562 208.804688 188.144531 208.804688 C 180.679688 208.804688 173.65625 204.945312 169.617188 198.671875 C 169.785156 198.402344 169.800781 198.054688 169.636719 197.761719 C 169.394531 197.339844 168.851562 197.191406 168.425781 197.433594 C 168.003906 197.675781 167.855469 198.214844 168.097656 198.640625 C 168.273438 198.953125 168.613281 199.113281 168.949219 199.082031 C 170.898438 202.121094 173.558594 204.671875 176.679688 206.496094 C 180.148438 208.519531 184.113281 209.589844 188.144531 209.589844 C 197.554688 209.589844 205.96875 203.804688 209.378906 195.09375 C 209.78125 195.074219 210.152344 194.808594 210.28125 194.402344 C 210.265625 194.457031 210.25 194.511719 210.238281 194.535156 C 210.246094 194.515625 210.261719 194.472656 210.28125 194.402344 C 210.289062 194.375 210.296875 194.355469 210.304688 194.339844 " fill-opacity="1" fill-rule="nonzero"/><path fill="#545454" d="M 165.742188 187.105469 C 165.320312 187.101562 164.976562 186.757812 164.976562 186.332031 C 164.980469 185.910156 165.328125 185.566406 165.75 185.570312 C 166.171875 185.570312 166.515625 185.917969 166.515625 186.339844 C 166.515625 186.234375 166.515625 186.128906 166.515625 186.339844 C 166.511719 186.40625 166.511719 186.4375 166.511719 186.453125 C 166.511719 186.433594 166.511719 186.386719 166.515625 186.339844 C 166.511719 186.765625 166.164062 187.105469 165.742188 187.105469 Z M 188.144531 164.382812 C 188.128906 163.890625 187.722656 163.507812 187.234375 163.519531 C 186.878906 163.527344 186.578125 163.746094 186.445312 164.054688 C 180.933594 164.460938 175.789062 166.84375 171.882812 170.824219 C 168 174.773438 165.714844 179.917969 165.386719 185.402344 C 165.011719 185.546875 164.746094 185.90625 164.742188 186.332031 C 164.738281 186.886719 165.1875 187.335938 165.742188 187.339844 C 166.292969 187.34375 166.746094 186.894531 166.75 186.339844 C 166.75 185.9375 166.511719 185.589844 166.167969 185.429688 C 166.839844 174.46875 175.527344 165.652344 186.484375 164.835938 C 186.640625 165.113281 186.941406 165.296875 187.28125 165.289062 C 187.769531 165.277344 188.15625 164.871094 188.144531 164.382812 " fill-opacity="1" fill-rule="nonzero"/><path fill="#545454" d="M 172.507812 174.730469 C 172.507812 174.726562 172.507812 174.726562 172.507812 174.730469 Z M 172.5 174.738281 C 172.492188 174.753906 172.472656 174.777344 172.445312 174.816406 C 172.464844 174.785156 172.488281 174.757812 172.5 174.738281 Z M 172.429688 174.835938 C 172.410156 174.859375 172.398438 174.882812 172.386719 174.894531 C 172.398438 174.878906 172.414062 174.855469 172.429688 174.835938 Z M 172.382812 174.902344 C 172.378906 174.90625 172.375 174.910156 172.371094 174.914062 C 172.375 174.910156 172.378906 174.90625 172.382812 174.902344 Z M 172.367188 174.921875 C 172.363281 174.925781 172.363281 174.925781 172.367188 174.921875 Z M 172.269531 173.753906 C 172.613281 174.003906 172.6875 174.484375 172.4375 174.828125 C 172.1875 175.167969 171.707031 175.242188 171.363281 174.992188 C 171.023438 174.742188 170.949219 174.261719 171.199219 173.917969 C 171.449219 173.578125 171.929688 173.503906 172.269531 173.753906 Z M 202.417969 171.515625 C 198.527344 167.871094 193.492188 165.871094 188.144531 165.871094 C 184.820312 165.871094 181.636719 166.632812 178.691406 168.132812 C 176.167969 169.414062 173.902344 171.226562 172.082031 173.40625 C 171.691406 173.300781 171.261719 173.433594 171.007812 173.78125 C 170.679688 174.226562 170.777344 174.855469 171.226562 175.183594 C 171.671875 175.507812 172.300781 175.410156 172.625 174.964844 C 172.863281 174.644531 172.878906 174.222656 172.699219 173.894531 C 176.542969 169.285156 182.117188 166.65625 188.144531 166.65625 C 193.285156 166.65625 198.128906 168.578125 201.871094 172.078125 C 201.773438 172.378906 201.839844 172.71875 202.074219 172.964844 C 202.410156 173.316406 202.972656 173.328125 203.324219 172.992188 C 203.679688 172.652344 203.691406 172.09375 203.351562 171.738281 C 203.105469 171.480469 202.738281 171.40625 202.417969 171.515625 " fill-opacity="1" fill-rule="nonzero"/><path fill="#545454" d="M 187.894531 204.660156 C 187.894531 204.660156 187.898438 204.660156 187.90625 204.660156 C 187.898438 204.660156 187.894531 204.660156 187.894531 204.660156 Z M 187.914062 204.660156 C 187.925781 204.660156 187.945312 204.660156 187.96875 204.660156 C 187.949219 204.660156 187.929688 204.660156 187.914062 204.660156 Z M 188.105469 204.65625 C 188.113281 204.65625 188.117188 204.65625 188.121094 204.65625 C 188.117188 204.65625 188.113281 204.65625 188.105469 204.65625 Z M 188.132812 204.65625 C 188.136719 204.65625 188.136719 204.65625 188.132812 204.65625 Z M 187.257812 205.441406 C 187.25 205.015625 187.589844 204.667969 188.011719 204.660156 C 188.03125 204.660156 188.046875 204.660156 188.058594 204.660156 C 188.042969 204.660156 188.027344 204.660156 188.011719 204.660156 C 188.4375 204.652344 188.785156 204.992188 188.792969 205.414062 C 188.800781 205.835938 188.460938 206.1875 188.039062 206.195312 C 187.617188 206.203125 187.265625 205.863281 187.257812 205.441406 Z M 188.042969 206.429688 C 188.597656 206.421875 189.039062 205.960938 189.027344 205.410156 C 189.019531 204.855469 188.5625 204.414062 188.007812 204.425781 C 187.609375 204.429688 187.273438 204.671875 187.117188 205.007812 C 177.535156 204.472656 169.894531 196.492188 169.894531 186.789062 C 169.894531 180.082031 173.492188 174.035156 179.335938 170.8125 C 179.589844 170.996094 179.933594 171.042969 180.234375 170.898438 C 180.679688 170.6875 180.867188 170.160156 180.65625 169.71875 C 180.449219 169.277344 179.921875 169.089844 179.480469 169.296875 C 179.152344 169.449219 178.964844 169.777344 178.972656 170.117188 C 176.164062 171.667969 173.785156 173.902344 172.0625 176.621094 C 170.128906 179.664062 169.109375 183.179688 169.109375 186.789062 C 169.109375 196.917969 177.089844 205.246094 187.09375 205.792969 C 187.242188 206.171875 187.613281 206.4375 188.042969 206.429688 " fill-opacity="1" fill-rule="nonzero"/><path fill="#545454" d="M 173.523438 193.269531 C 173.523438 193.269531 173.523438 193.269531 173.523438 193.273438 C 173.523438 193.269531 173.523438 193.269531 173.523438 193.269531 Z M 173.585938 193.394531 C 173.589844 193.402344 173.589844 193.410156 173.59375 193.417969 C 173.589844 193.410156 173.589844 193.402344 173.585938 193.394531 Z M 173.617188 193.457031 C 173.621094 193.46875 173.625 193.476562 173.625 193.480469 C 173.625 193.476562 173.621094 193.46875 173.617188 193.457031 Z M 172.546875 193.023438 C 172.925781 192.835938 173.386719 192.992188 173.574219 193.371094 C 173.761719 193.753906 173.601562 194.214844 173.222656 194.398438 C 172.84375 194.585938 172.382812 194.429688 172.195312 194.050781 C 172.007812 193.671875 172.164062 193.207031 172.546875 193.023438 Z M 170.996094 186.789062 C 170.996094 188.945312 171.386719 191.035156 172.164062 193.015625 C 171.878906 193.3125 171.792969 193.765625 171.984375 194.152344 C 171.957031 194.101562 171.933594 194.050781 171.921875 194.023438 C 171.929688 194.042969 171.949219 194.082031 171.984375 194.152344 C 172.019531 194.222656 172.039062 194.261719 172.046875 194.28125 C 172.035156 194.257812 172.007812 194.207031 171.984375 194.152344 C 172.226562 194.648438 172.832031 194.855469 173.328125 194.613281 C 173.824219 194.367188 174.027344 193.765625 173.785156 193.269531 C 173.609375 192.914062 173.257812 192.710938 172.886719 192.707031 C 172.152344 190.824219 171.78125 188.839844 171.78125 186.789062 C 171.78125 177.765625 179.121094 170.425781 188.144531 170.425781 C 189.3125 170.425781 190.472656 170.550781 191.609375 170.796875 C 191.675781 171.101562 191.902344 171.359375 192.222656 171.453125 C 192.691406 171.589844 193.183594 171.320312 193.320312 170.851562 C 193.457031 170.382812 193.191406 169.890625 192.71875 169.753906 C 192.375 169.652344 192.015625 169.773438 191.796875 170.03125 C 190.601562 169.773438 189.375 169.640625 188.144531 169.640625 C 178.6875 169.640625 170.996094 177.335938 170.996094 186.789062 " fill-opacity="1" fill-rule="nonzero"/><path fill="#545454" d="M 198.148438 196.71875 C 198.140625 196.726562 198.132812 196.734375 198.128906 196.742188 C 198.132812 196.734375 198.140625 196.726562 198.148438 196.71875 Z M 198.226562 196.632812 C 198.234375 196.625 198.242188 196.617188 198.246094 196.613281 C 198.242188 196.617188 198.234375 196.625 198.226562 196.632812 Z M 198.265625 196.59375 C 198.289062 196.570312 198.285156 196.574219 198.265625 196.59375 Z M 199.28125 196.621094 C 199.59375 196.910156 199.613281 197.398438 199.324219 197.707031 C 199.039062 198.019531 198.550781 198.039062 198.242188 197.75 C 197.929688 197.464844 197.910156 196.976562 198.199219 196.667969 C 198.195312 196.667969 198.191406 196.671875 198.1875 196.675781 C 198.191406 196.671875 198.195312 196.671875 198.199219 196.667969 C 198.203125 196.660156 198.207031 196.65625 198.214844 196.648438 C 198.207031 196.65625 198.203125 196.660156 198.199219 196.664062 C 198.484375 196.355469 198.972656 196.335938 199.28125 196.621094 Z M 199.5 197.867188 C 199.875 197.460938 199.847656 196.824219 199.441406 196.449219 C 199.035156 196.074219 198.398438 196.101562 198.023438 196.507812 C 197.757812 196.796875 197.695312 197.199219 197.828125 197.546875 C 195.160156 199.953125 191.757812 201.269531 188.144531 201.269531 C 180.160156 201.269531 173.664062 194.773438 173.664062 186.789062 C 173.664062 179.390625 179.238281 173.222656 186.5 172.402344 C 186.660156 172.667969 186.957031 172.84375 187.285156 172.832031 C 187.777344 172.816406 188.160156 172.40625 188.144531 171.917969 C 188.128906 171.429688 187.71875 171.046875 187.230469 171.0625 C 186.867188 171.074219 186.5625 171.304688 186.433594 171.621094 C 178.765625 172.476562 172.878906 178.980469 172.878906 186.789062 C 172.878906 195.207031 179.726562 202.054688 188.144531 202.054688 C 191.964844 202.054688 195.5625 200.660156 198.371094 198.109375 C 198.75 198.269531 199.203125 198.1875 199.5 197.867188 " fill-opacity="1" fill-rule="nonzero"/><path fill="#545454" d="M 200.328125 187.644531 C 200.328125 187.644531 200.328125 187.648438 200.328125 187.65625 C 200.328125 187.648438 200.328125 187.644531 200.328125 187.644531 Z M 200.328125 187.671875 C 200.328125 187.691406 200.328125 187.714844 200.328125 187.742188 C 200.328125 187.710938 200.328125 187.6875 200.328125 187.671875 Z M 200.320312 187.863281 C 200.320312 187.863281 200.320312 187.867188 200.320312 187.867188 C 200.320312 187.867188 200.320312 187.863281 200.320312 187.863281 Z M 200.320312 187.882812 C 200.320312 187.886719 200.320312 187.886719 200.320312 187.882812 Z M 201.121094 187.027344 C 201.546875 187.042969 201.875 187.398438 201.859375 187.820312 C 201.84375 188.246094 201.488281 188.574219 201.0625 188.558594 C 200.640625 188.542969 200.308594 188.1875 200.324219 187.761719 C 200.34375 187.339844 200.699219 187.007812 201.121094 187.027344 Z M 202.09375 187.832031 C 202.117188 187.277344 201.683594 186.8125 201.132812 186.789062 C 200.578125 186.769531 200.113281 187.199219 200.089844 187.753906 C 200.074219 188.140625 200.28125 188.484375 200.597656 188.664062 C 200.023438 192.472656 197.707031 195.839844 194.339844 197.753906 C 194.09375 197.574219 193.757812 197.527344 193.460938 197.660156 C 193.011719 197.859375 192.8125 198.382812 193.011719 198.832031 C 193.214844 199.277344 193.738281 199.476562 194.183594 199.277344 C 194.519531 199.125 194.714844 198.792969 194.707031 198.449219 C 198.300781 196.414062 200.773438 192.820312 201.378906 188.753906 C 201.777344 188.632812 202.078125 188.269531 202.09375 187.832031 " fill-opacity="1" fill-rule="nonzero"/><path fill="#545454" d="M 183.957031 198.277344 C 183.953125 198.277344 183.953125 198.277344 183.953125 198.277344 C 183.953125 198.277344 183.953125 198.277344 183.957031 198.277344 Z M 183.613281 199.777344 C 183.210938 199.652344 182.984375 199.222656 183.109375 198.816406 C 183.234375 198.414062 183.664062 198.1875 184.070312 198.3125 C 184.027344 198.296875 183.984375 198.285156 183.964844 198.277344 C 183.976562 198.285156 184.011719 198.292969 184.070312 198.3125 C 184.132812 198.332031 184.164062 198.339844 184.179688 198.347656 C 184.160156 198.339844 184.113281 198.328125 184.070312 198.3125 C 184.472656 198.4375 184.699219 198.867188 184.574219 199.273438 C 184.449219 199.675781 184.019531 199.902344 183.613281 199.777344 Z M 175.71875 188.863281 C 175.972656 188.691406 176.132812 188.394531 176.109375 188.066406 C 176.074219 187.578125 175.652344 187.210938 175.164062 187.246094 C 174.675781 187.28125 174.308594 187.703125 174.34375 188.191406 C 174.371094 188.558594 174.613281 188.855469 174.941406 188.96875 C 175.679688 193.441406 178.671875 197.269531 182.839844 199.074219 C 182.851562 199.492188 183.125 199.875 183.542969 200.003906 C 183.488281 199.988281 183.433594 199.96875 183.40625 199.960938 C 183.429688 199.96875 183.46875 199.980469 183.542969 200.003906 C 183.625 200.027344 183.667969 200.042969 183.6875 200.046875 C 183.664062 200.039062 183.605469 200.023438 183.542969 200.003906 C 184.074219 200.167969 184.636719 199.871094 184.800781 199.339844 C 184.964844 198.8125 184.667969 198.25 184.136719 198.085938 C 183.769531 197.972656 183.382812 198.082031 183.125 198.34375 C 179.222656 196.644531 176.417969 193.054688 175.71875 188.863281 " fill-opacity="1" fill-rule="nonzero"/></svg>