<svg xmlns="http://www.w3.org/2000/svg" xmlns:xlink="http://www.w3.org/1999/xlink" width="500" zoomAndPan="magnify" viewBox="0 0 375 374.999991" height="500" preserveAspectRatio="xMidYMid meet" version="1.0"><defs><clipPath id="5437213636"><path d="M 169 201 L 210 201 L 210 213.347656 L 169 213.347656 Z M 169 201 " clip-rule="nonzero"/></clipPath><clipPath id="46131473e3"><path d="M 161.5 171 L 167 171 L 167 199 L 161.5 199 Z M 161.5 171 " clip-rule="nonzero"/></clipPath><clipPath id="891aa0d606"><path d="M 195 186 L 213.25 186 L 213.25 211 L 195 211 Z M 195 186 " clip-rule="nonzero"/></clipPath><clipPath id="6d28ce78cd"><path d="M 163 161.597656 L 188 161.597656 L 188 208 L 163 208 Z M 163 161.597656 " clip-rule="nonzero"/></clipPath></defs><rect x="-37.5" width="450" fill="#ffffff" y="-37.499999" height="449.999989" fill-opacity="1"/><rect x="-37.5" width="450" fill="#545454" y="-37.499999" height="449.999989" fill-opacity="1"/><g clip-path="url(#5437213636)"><path fill="#ffffff" d="M 208.042969 202.621094 C 208.046875 202.617188 208.054688 202.609375 208.058594 202.601562 C 208.054688 202.609375 208.046875 202.617188 208.042969 202.621094 Z M 208.257812 203.605469 C 207.921875 203.347656 207.855469 202.867188 208.113281 202.527344 C 208.101562 202.546875 208.089844 202.5625 208.078125 202.574219 C 208.089844 202.5625 208.101562 202.546875 208.113281 202.527344 C 208.160156 202.46875 208.179688 202.441406 208.1875 202.433594 C 208.175781 202.445312 208.144531 202.488281 208.113281 202.527344 C 208.371094 202.191406 208.855469 202.125 209.191406 202.382812 C 209.527344 202.640625 209.59375 203.125 209.335938 203.460938 C 209.078125 203.796875 208.597656 203.863281 208.257812 203.605469 Z M 169.757812 205.457031 C 169.425781 205.8125 169.441406 206.375 169.796875 206.710938 C 170.054688 206.953125 170.421875 207.007812 170.730469 206.886719 C 175.574219 211.085938 181.722656 213.390625 188.140625 213.390625 C 192.289062 213.390625 196.265625 212.460938 199.957031 210.621094 C 203.1875 209.015625 206.105469 206.722656 208.445312 203.957031 C 208.832031 204.070312 209.265625 203.941406 209.523438 203.605469 C 209.859375 203.164062 209.773438 202.53125 209.335938 202.195312 C 208.894531 201.859375 208.261719 201.945312 207.925781 202.386719 C 207.683594 202.707031 207.660156 203.128906 207.835938 203.460938 C 202.90625 209.285156 195.785156 212.605469 188.140625 212.605469 C 181.917969 212.605469 175.953125 210.375 171.257812 206.304688 C 171.34375 205.996094 171.261719 205.652344 171.011719 205.417969 C 170.65625 205.082031 170.09375 205.097656 169.757812 205.457031 " fill-opacity="1" fill-rule="nonzero"/></g><g clip-path="url(#46131473e3)"><path fill="#ffffff" d="M 164.855469 197.019531 C 164.855469 197.015625 164.851562 197.007812 164.847656 196.996094 C 164.851562 197.007812 164.855469 197.015625 164.855469 197.019531 Z M 164.777344 196.84375 C 164.753906 196.792969 164.746094 196.773438 164.777344 196.84375 Z M 163.792969 196.523438 C 164.179688 196.347656 164.632812 196.523438 164.808594 196.910156 C 164.980469 197.296875 164.808594 197.75 164.421875 197.925781 C 164.035156 198.097656 163.578125 197.925781 163.40625 197.539062 C 163.230469 197.152344 163.40625 196.695312 163.792969 196.523438 Z M 166.714844 173.296875 C 166.984375 172.886719 166.871094 172.339844 166.460938 172.070312 C 166.050781 171.800781 165.5 171.917969 165.230469 172.324219 C 165.035156 172.625 165.046875 173 165.222656 173.285156 C 162.808594 177.367188 161.535156 182.019531 161.535156 186.785156 C 161.535156 190.15625 162.160156 193.425781 163.382812 196.527344 C 163.109375 196.8125 163.015625 197.25 163.191406 197.636719 C 163.417969 198.140625 164.011719 198.367188 164.515625 198.140625 C 165.023438 197.914062 165.25 197.316406 165.023438 196.8125 C 164.855469 196.441406 164.492188 196.222656 164.109375 196.222656 C 162.921875 193.21875 162.320312 190.050781 162.320312 186.785156 C 162.320312 182.164062 163.554688 177.65625 165.894531 173.695312 C 166.210938 173.722656 166.53125 173.582031 166.714844 173.296875 " fill-opacity="1" fill-rule="nonzero"/></g><path fill="#ffffff" d="M 199.121094 165.945312 C 199.128906 165.953125 199.128906 165.953125 199.121094 165.945312 Z M 199.113281 165.945312 C 199.109375 165.941406 199.101562 165.9375 199.089844 165.933594 C 199.101562 165.9375 199.109375 165.941406 199.113281 165.945312 Z M 199.703125 164.519531 C 200.082031 164.710938 200.238281 165.171875 200.046875 165.550781 C 199.859375 165.929688 199.394531 166.085938 199.015625 165.894531 C 198.636719 165.707031 198.484375 165.246094 198.671875 164.863281 C 198.863281 164.484375 199.324219 164.332031 199.703125 164.519531 Z M 208 171.269531 C 207.78125 170.984375 207.425781 170.867188 207.097656 170.941406 C 205.207031 168.6875 202.90625 166.761719 200.359375 165.304688 C 200.398438 164.90625 200.191406 164.5 199.808594 164.308594 C 199.3125 164.0625 198.707031 164.265625 198.460938 164.761719 C 198.214844 165.253906 198.417969 165.859375 198.910156 166.109375 C 199.269531 166.285156 199.6875 166.230469 199.980469 165.996094 C 202.4375 167.402344 204.660156 169.261719 206.488281 171.4375 C 206.355469 171.722656 206.382812 172.070312 206.585938 172.339844 C 206.882812 172.730469 207.4375 172.808594 207.828125 172.511719 C 208.21875 172.214844 208.296875 171.660156 208 171.269531 " fill-opacity="1" fill-rule="nonzero"/><g clip-path="url(#891aa0d606)"><path fill="#ffffff" d="M 211.675781 187.863281 C 211.675781 187.875 211.675781 187.882812 211.675781 187.890625 C 211.675781 187.886719 211.675781 187.875 211.675781 187.863281 Z M 211.679688 187.65625 C 211.679688 187.652344 211.679688 187.652344 211.679688 187.65625 Z M 212.460938 187.023438 C 212.886719 187.03125 213.222656 187.382812 213.214844 187.804688 C 213.207031 188.230469 212.855469 188.566406 212.429688 188.558594 C 212.007812 188.550781 211.667969 188.199219 211.679688 187.773438 C 211.675781 187.808594 211.675781 187.839844 211.675781 187.863281 C 211.675781 187.84375 211.675781 187.816406 211.679688 187.773438 C 211.679688 187.710938 211.679688 187.679688 211.679688 187.664062 C 211.679688 187.683594 211.679688 187.726562 211.679688 187.773438 C 211.6875 187.351562 212.039062 187.015625 212.460938 187.023438 Z M 213.449219 187.8125 C 213.460938 187.257812 213.019531 186.796875 212.46875 186.785156 C 211.914062 186.773438 211.453125 187.214844 211.441406 187.769531 C 211.433594 188.171875 211.664062 188.519531 212 188.6875 C 211.285156 197.769531 205.53125 205.59375 197.054688 209 C 196.820312 208.785156 196.480469 208.699219 196.160156 208.8125 C 195.699219 208.96875 195.453125 209.476562 195.613281 209.9375 C 195.773438 210.402344 196.277344 210.648438 196.742188 210.488281 C 197.078125 210.371094 197.300781 210.066406 197.332031 209.734375 C 201.578125 208.03125 205.25 205.195312 208 201.492188 C 210.777344 197.75 212.421875 193.355469 212.785156 188.734375 C 213.164062 188.601562 213.441406 188.238281 213.449219 187.8125 C 213.453125 187.796875 213.453125 187.78125 213.453125 187.765625 C 213.453125 187.78125 213.453125 187.796875 213.449219 187.8125 " fill-opacity="1" fill-rule="nonzero"/></g><g clip-path="url(#6d28ce78cd)"><path fill="#ffffff" d="M 173.714844 205.398438 C 173.710938 205.394531 173.710938 205.394531 173.714844 205.398438 Z M 172.734375 205.628906 C 172.988281 205.289062 173.46875 205.214844 173.808594 205.46875 C 173.769531 205.4375 173.734375 205.410156 173.71875 205.398438 C 173.730469 205.40625 173.757812 205.429688 173.808594 205.46875 C 173.871094 205.511719 173.898438 205.53125 173.90625 205.539062 C 173.894531 205.53125 173.851562 205.5 173.808594 205.46875 C 174.152344 205.71875 174.222656 206.203125 173.972656 206.542969 C 173.71875 206.882812 173.238281 206.957031 172.894531 206.703125 C 172.554688 206.453125 172.484375 205.96875 172.734375 205.628906 Z M 185.9375 162.167969 C 179.953125 162.699219 174.402344 165.378906 170.226562 169.769531 C 165.839844 174.390625 163.421875 180.429688 163.421875 186.785156 C 163.421875 190.699219 164.3125 194.441406 166.070312 197.914062 C 167.601562 200.933594 169.773438 203.648438 172.386719 205.820312 C 172.277344 206.207031 172.414062 206.640625 172.753906 206.894531 C 173.199219 207.222656 173.832031 207.128906 174.160156 206.683594 C 174.488281 206.238281 174.394531 205.605469 173.949219 205.277344 C 173.628906 205.039062 173.207031 205.023438 172.875 205.203125 C 167.355469 200.628906 164.207031 193.972656 164.207031 186.785156 C 164.207031 174.359375 173.710938 164.046875 185.988281 162.953125 C 186.148438 163.226562 186.453125 163.40625 186.796875 163.390625 C 187.285156 163.371094 187.664062 162.953125 187.640625 162.464844 C 187.617188 161.976562 187.203125 161.597656 186.714844 161.621094 C 186.359375 161.636719 186.0625 161.859375 185.9375 162.167969 " fill-opacity="1" fill-rule="nonzero"/></g><path fill="#ffffff" d="M 208.609375 193.910156 C 208.605469 193.917969 208.605469 193.925781 208.601562 193.933594 C 208.601562 193.925781 208.605469 193.917969 208.609375 193.910156 Z M 208.601562 193.9375 C 208.597656 193.945312 208.59375 193.953125 208.59375 193.960938 C 208.59375 193.953125 208.597656 193.945312 208.601562 193.9375 Z M 208.585938 193.976562 C 208.585938 193.980469 208.585938 193.980469 208.585938 193.976562 Z M 208.644531 193.792969 C 208.644531 193.792969 208.648438 193.792969 208.648438 193.789062 C 208.648438 193.792969 208.644531 193.792969 208.644531 193.792969 Z M 208.65625 193.765625 C 208.65625 193.757812 208.660156 193.75 208.660156 193.75 C 208.660156 193.75 208.65625 193.757812 208.65625 193.765625 Z M 209.589844 193.367188 C 209.996094 193.496094 210.21875 193.933594 210.085938 194.335938 C 209.957031 194.738281 209.523438 194.960938 209.117188 194.832031 C 208.714844 194.699219 208.492188 194.265625 208.625 193.863281 C 208.628906 193.84375 208.632812 193.828125 208.640625 193.816406 C 208.632812 193.832031 208.628906 193.847656 208.625 193.863281 C 208.753906 193.460938 209.1875 193.238281 209.589844 193.367188 Z M 210.332031 194.347656 C 210.324219 194.363281 210.316406 194.386719 210.3125 194.40625 C 210.480469 193.878906 210.191406 193.3125 209.664062 193.144531 C 209.136719 192.972656 208.570312 193.265625 208.398438 193.789062 C 208.277344 194.171875 208.394531 194.574219 208.667969 194.832031 C 205.367188 203.246094 197.234375 208.832031 188.140625 208.832031 C 180.667969 208.832031 173.632812 204.964844 169.589844 198.683594 C 169.757812 198.417969 169.773438 198.066406 169.609375 197.773438 C 169.363281 197.347656 168.824219 197.199219 168.398438 197.445312 C 167.972656 197.6875 167.824219 198.226562 168.066406 198.652344 C 168.246094 198.964844 168.585938 199.128906 168.917969 199.097656 C 170.875 202.136719 173.539062 204.691406 176.664062 206.519531 C 180.136719 208.546875 184.105469 209.617188 188.140625 209.617188 C 197.566406 209.617188 205.988281 203.824219 209.40625 195.101562 C 209.808594 195.082031 210.179688 194.816406 210.3125 194.40625 C 210.292969 194.460938 210.277344 194.515625 210.265625 194.542969 C 210.273438 194.523438 210.289062 194.480469 210.3125 194.40625 C 210.320312 194.382812 210.324219 194.363281 210.332031 194.347656 " fill-opacity="1" fill-rule="nonzero"/><path fill="#ffffff" d="M 165.710938 187.101562 C 165.285156 187.097656 164.941406 186.753906 164.945312 186.328125 C 164.945312 185.90625 165.292969 185.5625 165.71875 185.5625 C 166.140625 185.566406 166.484375 185.914062 166.480469 186.335938 C 166.484375 186.230469 166.484375 186.125 166.480469 186.335938 C 166.480469 186.398438 166.480469 186.433594 166.480469 186.449219 C 166.480469 186.429688 166.480469 186.382812 166.480469 186.335938 C 166.480469 186.761719 166.132812 187.101562 165.710938 187.101562 Z M 188.140625 164.347656 C 188.128906 163.859375 187.722656 163.46875 187.230469 163.484375 C 186.875 163.492188 186.574219 163.710938 186.441406 164.019531 C 180.921875 164.425781 175.769531 166.8125 171.855469 170.796875 C 167.972656 174.753906 165.683594 179.90625 165.351562 185.394531 C 164.976562 185.542969 164.710938 185.902344 164.710938 186.328125 C 164.707031 186.882812 165.15625 187.335938 165.707031 187.335938 C 166.261719 187.339844 166.714844 186.890625 166.71875 186.335938 C 166.71875 185.933594 166.480469 185.585938 166.136719 185.421875 C 166.808594 174.449219 175.507812 165.621094 186.480469 164.804688 C 186.636719 165.082031 186.9375 165.265625 187.277344 165.257812 C 187.765625 165.242188 188.152344 164.835938 188.140625 164.347656 " fill-opacity="1" fill-rule="nonzero"/><path fill="#ffffff" d="M 172.484375 174.710938 C 172.488281 174.707031 172.488281 174.707031 172.484375 174.710938 Z M 172.476562 174.71875 C 172.46875 174.734375 172.449219 174.757812 172.421875 174.796875 C 172.441406 174.765625 172.464844 174.734375 172.476562 174.71875 Z M 172.40625 174.816406 C 172.386719 174.839844 172.375 174.859375 172.363281 174.875 C 172.375 174.859375 172.390625 174.835938 172.40625 174.816406 Z M 172.359375 174.882812 C 172.355469 174.886719 172.351562 174.890625 172.347656 174.894531 C 172.351562 174.890625 172.355469 174.886719 172.359375 174.882812 Z M 172.34375 174.902344 C 172.339844 174.90625 172.339844 174.90625 172.34375 174.902344 Z M 172.246094 173.730469 C 172.589844 173.984375 172.664062 174.464844 172.414062 174.808594 C 172.164062 175.148438 171.679688 175.222656 171.339844 174.972656 C 170.996094 174.722656 170.921875 174.238281 171.171875 173.898438 C 171.425781 173.554688 171.90625 173.480469 172.246094 173.730469 Z M 202.4375 171.492188 C 198.539062 167.84375 193.496094 165.839844 188.140625 165.839844 C 184.8125 165.839844 181.628906 166.601562 178.675781 168.105469 C 176.152344 169.386719 173.882812 171.203125 172.058594 173.382812 C 171.667969 173.277344 171.234375 173.414062 170.984375 173.757812 C 170.65625 174.203125 170.753906 174.835938 171.199219 175.164062 C 171.644531 175.488281 172.277344 175.394531 172.605469 174.945312 C 172.839844 174.621094 172.855469 174.203125 172.675781 173.871094 C 176.523438 169.257812 182.109375 166.625 188.140625 166.625 C 193.289062 166.625 198.136719 168.546875 201.886719 172.054688 C 201.789062 172.355469 201.855469 172.699219 202.089844 172.941406 C 202.429688 173.296875 202.988281 173.308594 203.34375 172.96875 C 203.695312 172.628906 203.710938 172.070312 203.371094 171.714844 C 203.121094 171.457031 202.753906 171.382812 202.4375 171.492188 " fill-opacity="1" fill-rule="nonzero"/><path fill="#ffffff" d="M 187.890625 204.683594 C 187.894531 204.683594 187.898438 204.683594 187.902344 204.683594 C 187.898438 204.683594 187.894531 204.683594 187.890625 204.683594 Z M 187.914062 204.683594 C 187.925781 204.683594 187.941406 204.683594 187.96875 204.679688 C 187.945312 204.683594 187.925781 204.683594 187.914062 204.683594 Z M 188.105469 204.679688 C 188.109375 204.679688 188.113281 204.679688 188.117188 204.679688 C 188.113281 204.679688 188.109375 204.679688 188.105469 204.679688 Z M 188.128906 204.679688 C 188.132812 204.679688 188.132812 204.679688 188.128906 204.679688 Z M 187.253906 205.464844 C 187.246094 205.039062 187.585938 204.6875 188.007812 204.679688 C 188.027344 204.679688 188.042969 204.679688 188.058594 204.679688 C 188.042969 204.679688 188.027344 204.679688 188.007812 204.679688 C 188.433594 204.671875 188.785156 205.011719 188.792969 205.433594 C 188.800781 205.859375 188.460938 206.210938 188.039062 206.21875 C 187.613281 206.226562 187.261719 205.886719 187.253906 205.464844 Z M 188.042969 206.453125 C 188.597656 206.445312 189.039062 205.984375 189.027344 205.429688 C 189.019531 204.878906 188.558594 204.433594 188.007812 204.445312 C 187.609375 204.453125 187.269531 204.691406 187.113281 205.03125 C 177.519531 204.492188 169.867188 196.503906 169.867188 186.785156 C 169.867188 180.070312 173.46875 174.015625 179.320312 170.789062 C 179.574219 170.972656 179.917969 171.015625 180.222656 170.871094 C 180.664062 170.664062 180.855469 170.136719 180.644531 169.691406 C 180.4375 169.25 179.90625 169.058594 179.464844 169.269531 C 179.140625 169.421875 178.949219 169.75 178.957031 170.089844 C 176.148438 171.640625 173.765625 173.878906 172.035156 176.601562 C 170.105469 179.648438 169.082031 183.171875 169.082031 186.785156 C 169.082031 196.929688 177.074219 205.269531 187.089844 205.816406 C 187.238281 206.195312 187.609375 206.460938 188.042969 206.453125 " fill-opacity="1" fill-rule="nonzero"/><path fill="#ffffff" d="M 173.5 193.273438 C 173.5 193.273438 173.5 193.273438 173.5 193.277344 C 173.5 193.273438 173.5 193.273438 173.5 193.273438 Z M 173.5625 193.402344 C 173.566406 193.410156 173.570312 193.414062 173.574219 193.421875 C 173.570312 193.414062 173.566406 193.40625 173.5625 193.402344 Z M 173.59375 193.464844 C 173.597656 193.476562 173.601562 193.480469 173.605469 193.484375 C 173.601562 193.480469 173.597656 193.472656 173.59375 193.464844 Z M 172.523438 193.027344 C 172.902344 192.839844 173.363281 192.996094 173.550781 193.378906 C 173.738281 193.757812 173.582031 194.21875 173.199219 194.40625 C 172.820312 194.59375 172.359375 194.4375 172.171875 194.054688 C 171.984375 193.675781 172.140625 193.214844 172.523438 193.027344 Z M 170.96875 186.785156 C 170.96875 188.945312 171.363281 191.035156 172.140625 193.019531 C 171.855469 193.316406 171.769531 193.769531 171.960938 194.160156 C 171.933594 194.109375 171.910156 194.054688 171.898438 194.03125 C 171.90625 194.050781 171.925781 194.089844 171.960938 194.160156 C 171.996094 194.230469 172.015625 194.269531 172.023438 194.289062 C 172.011719 194.265625 171.984375 194.210938 171.960938 194.160156 C 172.203125 194.65625 172.808594 194.863281 173.304688 194.617188 C 173.800781 194.375 174.007812 193.769531 173.761719 193.273438 C 173.589844 192.921875 173.234375 192.714844 172.863281 192.714844 C 172.128906 190.828125 171.753906 188.839844 171.753906 186.785156 C 171.753906 177.75 179.105469 170.402344 188.140625 170.402344 C 189.3125 170.402344 190.476562 170.527344 191.609375 170.773438 C 191.679688 171.078125 191.90625 171.335938 192.226562 171.429688 C 192.695312 171.566406 193.1875 171.296875 193.328125 170.828125 C 193.464844 170.355469 193.195312 169.863281 192.726562 169.726562 C 192.378906 169.625 192.019531 169.746094 191.796875 170.007812 C 190.601562 169.746094 189.375 169.613281 188.140625 169.613281 C 178.671875 169.613281 170.96875 177.316406 170.96875 186.785156 " fill-opacity="1" fill-rule="nonzero"/><path fill="#ffffff" d="M 198.160156 196.730469 C 198.152344 196.738281 198.144531 196.746094 198.140625 196.75 C 198.144531 196.746094 198.152344 196.738281 198.160156 196.730469 Z M 198.238281 196.644531 C 198.246094 196.636719 198.253906 196.628906 198.257812 196.621094 C 198.253906 196.628906 198.246094 196.636719 198.238281 196.644531 Z M 198.277344 196.601562 C 198.300781 196.578125 198.296875 196.582031 198.277344 196.601562 Z M 199.296875 196.632812 C 199.605469 196.921875 199.625 197.40625 199.339844 197.71875 C 199.050781 198.03125 198.5625 198.050781 198.253906 197.761719 C 197.941406 197.476562 197.921875 196.988281 198.210938 196.675781 C 198.207031 196.679688 198.203125 196.683594 198.199219 196.6875 C 198.203125 196.683594 198.207031 196.679688 198.210938 196.675781 C 198.214844 196.667969 198.21875 196.664062 198.226562 196.660156 C 198.21875 196.664062 198.214844 196.671875 198.210938 196.675781 C 198.496094 196.363281 198.984375 196.34375 199.296875 196.632812 Z M 199.511719 197.878906 C 199.886719 197.472656 199.863281 196.835938 199.457031 196.460938 C 199.050781 196.082031 198.410156 196.109375 198.035156 196.515625 C 197.769531 196.804688 197.707031 197.210938 197.835938 197.558594 C 195.167969 199.96875 191.761719 201.285156 188.140625 201.285156 C 180.144531 201.285156 173.640625 194.78125 173.640625 186.785156 C 173.640625 179.375 179.222656 173.203125 186.496094 172.378906 C 186.65625 172.644531 186.953125 172.820312 187.285156 172.808594 C 187.773438 172.792969 188.15625 172.382812 188.140625 171.894531 C 188.125 171.40625 187.714844 171.019531 187.226562 171.035156 C 186.863281 171.046875 186.558594 171.277344 186.429688 171.597656 C 178.753906 172.453125 172.855469 178.964844 172.855469 186.785156 C 172.855469 195.214844 179.714844 202.070312 188.140625 202.070312 C 191.96875 202.070312 195.570312 200.675781 198.382812 198.121094 C 198.761719 198.28125 199.21875 198.199219 199.511719 197.878906 " fill-opacity="1" fill-rule="nonzero"/><path fill="#ffffff" d="M 200.34375 187.640625 C 200.34375 187.644531 200.34375 187.648438 200.34375 187.652344 C 200.34375 187.648438 200.34375 187.644531 200.34375 187.640625 Z M 200.34375 187.667969 C 200.34375 187.6875 200.339844 187.714844 200.339844 187.738281 C 200.34375 187.707031 200.34375 187.683594 200.34375 187.667969 Z M 200.335938 187.859375 C 200.335938 187.863281 200.335938 187.863281 200.335938 187.867188 C 200.335938 187.863281 200.335938 187.863281 200.335938 187.859375 Z M 200.335938 187.878906 C 200.335938 187.882812 200.335938 187.882812 200.335938 187.878906 Z M 201.136719 187.023438 C 201.5625 187.039062 201.894531 187.394531 201.875 187.820312 C 201.859375 188.242188 201.503906 188.574219 201.078125 188.558594 C 200.65625 188.542969 200.324219 188.183594 200.339844 187.761719 C 200.355469 187.335938 200.714844 187.007812 201.136719 187.023438 Z M 202.113281 187.828125 C 202.132812 187.273438 201.699219 186.808594 201.148438 186.785156 C 200.59375 186.765625 200.125 187.199219 200.105469 187.75 C 200.089844 188.140625 200.296875 188.484375 200.613281 188.664062 C 200.039062 192.476562 197.71875 195.851562 194.347656 197.761719 C 194.097656 197.582031 193.765625 197.539062 193.464844 197.671875 C 193.015625 197.871094 192.816406 198.394531 193.015625 198.84375 C 193.21875 199.289062 193.742188 199.492188 194.1875 199.289062 C 194.527344 199.140625 194.722656 198.804688 194.714844 198.460938 C 198.316406 196.425781 200.789062 192.824219 201.394531 188.753906 C 201.792969 188.632812 202.09375 188.269531 202.113281 187.828125 " fill-opacity="1" fill-rule="nonzero"/><path fill="#ffffff" d="M 183.949219 198.289062 C 183.945312 198.289062 183.945312 198.289062 183.945312 198.289062 C 183.945312 198.289062 183.949219 198.289062 183.949219 198.289062 Z M 183.605469 199.792969 C 183.203125 199.667969 182.972656 199.234375 183.097656 198.832031 C 183.222656 198.425781 183.65625 198.199219 184.0625 198.324219 C 184.019531 198.308594 183.976562 198.296875 183.957031 198.289062 C 183.96875 198.296875 184.003906 198.304688 184.0625 198.324219 C 184.125 198.34375 184.15625 198.351562 184.171875 198.359375 C 184.152344 198.351562 184.109375 198.339844 184.0625 198.324219 C 184.464844 198.449219 184.695312 198.878906 184.566406 199.285156 C 184.441406 199.691406 184.011719 199.917969 183.605469 199.792969 Z M 175.699219 188.863281 C 175.957031 188.691406 176.113281 188.390625 176.089844 188.0625 C 176.054688 187.574219 175.632812 187.207031 175.144531 187.242188 C 174.65625 187.277344 174.289062 187.703125 174.324219 188.191406 C 174.347656 188.554688 174.59375 188.855469 174.921875 188.964844 C 175.660156 193.449219 178.660156 197.28125 182.832031 199.085938 C 182.84375 199.503906 183.117188 199.886719 183.535156 200.019531 C 183.480469 200 183.425781 199.984375 183.398438 199.976562 C 183.421875 199.980469 183.460938 199.996094 183.535156 200.019531 C 183.617188 200.042969 183.660156 200.054688 183.679688 200.0625 C 183.65625 200.054688 183.597656 200.035156 183.535156 200.019531 C 184.066406 200.179688 184.628906 199.882812 184.792969 199.355469 C 184.957031 198.828125 184.660156 198.261719 184.128906 198.097656 C 183.761719 197.984375 183.375 198.09375 183.117188 198.355469 C 179.210938 196.652344 176.402344 193.0625 175.699219 188.863281 " fill-opacity="1" fill-rule="nonzero"/></svg>